<?xml version="1.0" encoding="UTF-8"?>
<svg version="1.1" xmlns="http://www.w3.org/2000/svg" width="282" height="256" viewBox="225.19 235.76 281.81 255.59">
<path d="M0 0 C1.84425856 0.00056528 3.68851758 0.00024529 5.53277588 -0.00088501 C10.50089608 -0.00145498 15.46891821 0.01024134 20.43701577 0.02426291 C25.64332335 0.03682994 30.84963358 0.03794545 36.05595398 0.04031372 C45.89763986 0.04651102 55.7392809 0.062898 65.5809471 0.0830127 C76.79263719 0.10542637 88.0043295 0.11637884 99.21603644 0.12640357 C122.26343384 0.1472659 145.31079155 0.18240761 168.3581543 0.22705078 C166.8271369 5.03857827 164.82298869 9.24630582 162.2956543 13.60205078 C161.47906825 15.03033342 160.66266701 16.45872173 159.84643555 17.88720703 C159.43087402 18.61053223 159.0153125 19.33385742 158.5871582 20.07910156 C157.063015 22.74287031 155.56468496 25.42055695 154.06762695 28.09960938 C149.78689465 35.75712826 145.40850339 43.35596906 140.98754883 50.93334961 C140.5439502 51.69542725 140.10035156 52.45750488 139.64331055 53.24267578 C139.25022705 53.91588867 138.85714355 54.58910156 138.45214844 55.28271484 C137.35362315 57.2351039 136.35332316 59.22044611 135.3581543 61.22705078 C134.75906407 61.23643645 134.15997385 61.24582212 133.54272938 61.25549221 C118.86443699 61.4856817 104.18620736 61.71961131 89.50803852 61.95754147 C82.40935755 62.07252242 75.31066141 62.18630587 68.21191406 62.29711914 C62.01389005 62.39387509 55.81590953 62.49303165 49.61796731 62.59489638 C46.34600014 62.64859274 43.07402099 62.70084724 39.80199623 62.75092888 C27.74888164 62.93608475 15.69683034 63.13919606 3.65185547 63.63549805 C2.83414075 63.66432792 2.01642603 63.69315779 1.17393208 63.72286129 C-10.8613992 64.28364068 -22.4826986 67.75806854 -30.94262695 76.83251953 C-39.18780526 88.45158689 -41.86413189 99.24263522 -41.93701172 113.28613281 C-41.94843442 114.81226952 -41.96872879 116.33836944 -41.99853516 117.86425781 C-42.34538142 135.65611474 -38.68766377 151.62212758 -26.0949707 164.90283203 C-19.46299708 171.18631023 -12.30809727 175.39204445 -3.6418457 178.22705078 C-2.57321289 178.60474609 -1.50458008 178.98244141 -0.40356445 179.37158203 C2.85997624 180.11375795 4.48623338 180.229781 7.6706543 179.87548828 C13.00428138 179.43716235 17.62247125 179.4919679 22.3581543 182.22705078 C27.91568274 188.64888564 31.24525247 196.80925741 34.71325684 204.49938965 C37.63199648 210.96094825 41.06533298 217.08772355 44.6081543 223.22705078 C45.14553223 224.1805542 45.68291016 225.13405762 46.23657227 226.11645508 C48.43489873 230.00238928 50.61667448 233.69456693 53.3581543 237.22705078 C53.88280273 236.37369141 54.40745117 235.52033203 54.94799805 234.64111328 C60.4568407 225.73197657 66.12312128 216.92938542 71.8581543 208.16455078 C72.54514404 207.11412598 73.23213379 206.06370117 73.93994141 204.98144531 C75.339933 202.84578672 76.77426196 200.73230068 78.23950195 198.64086914 C79.87229493 196.20386267 80.89941623 193.87858404 81.86352539 191.11206055 C83.77138982 186.34431647 85.74955303 182.76724006 90.3581543 180.22705078 C101.11744179 177.80466595 112.55290513 178.74771999 123.49414062 179.19708252 C127.64950038 179.35145648 131.80621329 179.41922672 135.96362305 179.49462891 C144.09888649 179.65478123 152.22749177 179.91020641 160.3581543 180.22705078 C159.09989763 184.11293588 157.78196802 187.52686985 155.69799805 191.04345703 C155.16005615 191.95812744 154.62211426 192.87279785 154.06787109 193.81518555 C153.48303955 194.79672607 152.89820801 195.7782666 152.2956543 196.78955078 C151.02998874 198.9353602 149.76436567 201.08119467 148.4987793 203.22705078 C147.82782227 204.36013672 147.15686523 205.49322266 146.46557617 206.66064453 C144.28724898 210.34226694 142.12597433 214.03374582 139.9675293 217.72705078 C119.01645106 253.56875402 119.01645106 253.56875402 117.3581543 255.22705078 C116.01191644 255.32883938 114.6604187 255.36222341 113.31034851 255.36749268 C112.00116959 255.37605789 112.00116959 255.37605789 110.6655426 255.38479614 C109.21727333 255.38647293 109.21727333 255.38647293 107.73974609 255.38818359 C106.72809387 255.3931485 105.71644165 255.3981134 104.6741333 255.40322876 C101.30187306 255.41791646 97.92966013 255.42466947 94.55737305 255.43017578 C92.2077484 255.43592951 89.85812377 255.44168721 87.50849915 255.44744873 C82.56100241 255.45798264 77.61352201 255.46380711 72.66601562 255.46728516 C66.37797108 255.47272203 60.09014836 255.49663534 53.80217266 255.52525711 C48.9348543 255.54406093 44.06758695 255.54909881 39.20023537 255.55062103 C36.88619611 255.55361713 34.57215708 255.56154045 32.25815392 255.57480621 C-0.06021509 255.74658592 -32.83898572 250.69782141 -59.6418457 231.22705078 C-60.69629883 230.46650391 -61.75075195 229.70595703 -62.8371582 228.92236328 C-89.03139059 209.61512809 -106.46603217 180.25971445 -111.81713867 148.10986328 C-116.28890651 115.27606106 -111.78854179 81.29110373 -95.6418457 52.22705078 C-95.13782227 51.29505859 -94.63379883 50.36306641 -94.11450195 49.40283203 C-80.34600733 25.10773209 -57.62214463 10.46732732 -31.6418457 2.22705078 C-21.15501028 -0.13479476 -10.67745316 -0.04624435 0 0 Z " fill="black" transform="translate(338.641845703125,235.77294921875)"/>
<path d="M0 0 C1.88340522 0.0009477 3.76698031 0.0347228 5.64941406 0.09521484 C6.64257629 0.10370453 7.63573853 0.11219421 8.65899658 0.12094116 C11.82878447 0.15450846 14.99602121 0.22979625 18.16503906 0.30615234 C20.31474189 0.33624754 22.46448462 0.36362411 24.61425781 0.38818359 C29.88205421 0.45430982 35.14836441 0.55469021 40.41503906 0.68115234 C39.22491444 3.76473287 37.95300539 6.69032057 36.34863281 9.57958984 C35.75127319 10.65744751 35.75127319 10.65744751 35.1418457 11.75708008 C34.71637451 12.51577393 34.29090332 13.27446777 33.85253906 14.05615234 C33.18436157 15.25316772 33.18436157 15.25316772 32.50268555 16.47436523 C29.38692677 22.02570917 26.1673229 27.5050029 22.8684082 32.94897461 C19.95244852 37.7651943 17.10672163 42.61874301 14.29003906 47.49365234 C13.83532227 48.28054443 13.38060547 49.06743652 12.91210938 49.87817383 C10.25009311 54.49036685 7.59552654 59.10681986 4.94238281 63.72412109 C1.79012639 69.20767271 -1.37400886 74.6842382 -4.54541016 80.15673828 C-5.95780993 82.59491234 -7.36493581 85.03604535 -8.76904297 87.47900391 C-10.59302506 90.65098566 -12.42856133 93.81602643 -14.2718811 96.97680664 C-14.9779507 98.19180982 -15.68011591 99.40909074 -16.37826538 100.62866211 C-17.34820924 102.32143892 -18.33340799 104.00544754 -19.31933594 105.68896484 C-20.15803223 107.13746826 -20.15803223 107.13746826 -21.01367188 108.61523438 C-21.53219727 109.2969873 -22.05072266 109.97874023 -22.58496094 110.68115234 C-23.57496094 110.68115234 -24.56496094 110.68115234 -25.58496094 110.68115234 C-25.89087158 110.11420654 -26.19678223 109.54726074 -26.51196289 108.96313477 C-33.17273695 96.6374164 -39.97843158 84.41871102 -47.04541016 72.32177734 C-50.03152392 67.20001926 -52.99562821 62.06553782 -55.95996094 56.93115234 C-56.59474365 55.832146 -57.22952637 54.73313965 -57.88354492 53.60083008 C-62.66470841 45.30962997 -67.3793274 36.98242307 -72.0637207 28.63623047 C-75.58977997 22.37505543 -79.21627658 16.18632284 -83.04736328 10.10620117 C-84.73611011 7.37454668 -85.58496094 5.96409658 -85.58496094 2.68115234 C-80.56816703 2.45790387 -75.55428563 2.29503226 -70.53369141 2.18676758 C-68.8281009 2.14162816 -67.12285642 2.08029511 -65.41845703 2.00219727 C-51.45030688 1.37840072 -51.45030688 1.37840072 -47.39208984 4.21264648 C-45.75100754 6.61160331 -44.70988908 9.00024672 -43.58496094 11.68115234 C-42.59827542 13.40766413 -41.60995699 15.13346496 -40.59317017 16.84242249 C-39.49551298 18.69097049 -38.42866134 20.5541056 -37.37011719 22.42529297 C-36.83862061 23.36465698 -36.83862061 23.36465698 -36.29638672 24.32299805 C-35.75860596 25.27372192 -35.75860596 25.27372192 -35.20996094 26.24365234 C-34.46677598 27.55176817 -33.72328848 28.85971215 -32.97949219 30.16748047 C-31.17782846 33.33673417 -29.38025062 36.50828258 -27.58496094 39.68115234 C-22.58742462 31.88613364 -18.14862635 23.80483501 -13.66894531 15.70458984 C-12.7746582 14.09583984 -12.7746582 14.09583984 -11.86230469 12.45458984 C-11.06167603 11.00705322 -11.06167603 11.00705322 -10.24487305 9.53027344 C-9.69710205 8.59006348 -9.14933105 7.64985352 -8.58496094 6.68115234 C-8.06844971 5.58416016 -7.55193848 4.48716797 -7.01977539 3.35693359 C-4.28667748 0.35334861 -3.84166919 0.25790273 0 0 Z " fill="black" transform="translate(415.5849609375,323.31884765625)"/>
</svg>
