<svg xmlns="http://www.w3.org/2000/svg" version="1.1" viewBox="7.81 7.81 84.37 84.36">  <path d="m72.562 55.953h-9.8594c-0.125 0-0.25 0.03125-0.35938 0.046875h-0.03125c-0.046875 0-0.09375 0.046875-0.14062 0.0625-0.0625 0.015625-0.10938 0.046875-0.17188 0.078125s-0.125 0.03125-0.17188 0.078125c-0.09375 0.0625-0.1875 0.14062-0.26562 0.21875-0.0625 0.0625-0.10938 0.14062-0.15625 0.20312-0.0625 0.09375-0.10938 0.17188-0.14062 0.26562v0.03125c-0.03125 0.0625-0.03125 0.125-0.046875 0.1875-0.03125 0.10938-0.046875 0.23438-0.0625 0.34375v0.21875c0 0.10938 0.03125 0.23438 0.078125 0.34375 0.015625 0.0625 0.03125 0.125 0.0625 0.17188 0.078125 0.14062 0.17188 0.28125 0.28125 0.40625 0 0 0.015625 0.03125 0.03125 0.046875 0.71875 0.6875 1.1094 1.625 1.1094 2.625 0 2.0469-1.6562 3.7031-3.7031 3.7031s-3.7031-1.6562-3.7031-3.7031c0-1 0.39062-1.9375 1.1094-2.625 0.39062-0.375 0.51562-0.92188 0.42188-1.4219-0.015625-0.09375 0-0.1875-0.046875-0.26562-0.078125-0.1875-0.1875-0.375-0.32812-0.53125-0.28125-0.29688-0.6875-0.48438-1.125-0.48438h-11.312v-11.312c0-0.1875-0.046875-0.39062-0.125-0.57812 0-0.03125-0.03125-0.046875-0.03125-0.078125-0.03125-0.078125-0.0625-0.15625-0.10938-0.21875-0.0625-0.09375-0.14062-0.17188-0.21875-0.25-0.15625-0.14062-0.32812-0.25-0.51562-0.32812s-0.39062-0.10938-0.59375-0.10938c-0.40625 0-0.79688 0.17188-1.0938 0.48438-0.6875 0.70312-1.6094 1.1094-2.625 1.1094-2.0469 0-3.7031-1.6562-3.7031-3.7031s1.6562-3.7031 3.7031-3.7031c1.0156 0 1.9531 0.39062 2.6406 1.1094 0 0 0.015625 0 0.03125 0.015625 0.125 0.125 0.28125 0.23438 0.4375 0.29688 0.0625 0.03125 0.10938 0.046875 0.17188 0.0625 0.10938 0.03125 0.21875 0.0625 0.34375 0.078125h0.21875c0.10938 0 0.23438-0.03125 0.34375-0.0625 0.0625-0.015625 0.125-0.015625 0.1875-0.046875h0.03125c0.09375-0.03125 0.17188-0.09375 0.26562-0.14062 0.0625-0.046875 0.14062-0.09375 0.20312-0.15625 0.32812-0.3125 0.48438-0.71875 0.48438-1.1406v-9.8594c0-2.5312-2.0625-4.5781-4.5781-4.5781h-27.109c-2.5312 0-4.5781 2.0469-4.5781 4.5781v60.172c0 2.5312 2.0469 4.5781 4.5781 4.5781h60.172c2.5312 0 4.5781-2.0469 4.5781-4.5781v-27.078c0-2.5156-2.0469-4.5781-4.5781-4.5781zm-61.625-28.516c0-0.8125 0.65625-1.4531 1.4531-1.4531h27.078c0.79688 0 1.4531 0.64062 1.4531 1.4531v7.0938c-0.70312-0.23438-1.4375-0.39062-2.2031-0.39062-3.7656 0-6.8281 3.0625-6.8281 6.8281s3.0625 6.8281 6.8281 6.8281c0.76562 0 1.5-0.15625 2.2031-0.39062v8.5469h-8.5312c0.23438-0.6875 0.35938-1.4219 0.35938-2.1875 0-3.7656-3.0625-6.8281-6.8281-6.8281s-6.8281 3.0625-6.8281 6.8281c0 0.76562 0.125 1.5 0.375 2.1875h-8.5312zm63.078 60.172c0 0.79688-0.64062 1.4531-1.4531 1.4531h-28.516v-11.312c0-0.42188-0.15625-0.82812-0.48438-1.1406-0.0625-0.0625-0.14062-0.10938-0.20312-0.15625-0.09375-0.0625-0.17188-0.10938-0.26562-0.14062-0.59375-0.25-1.2969-0.125-1.75 0.35938-0.6875 0.70312-1.6094 1.1094-2.625 1.1094-2.0469 0-3.7031-1.6719-3.7031-3.7031s1.6562-3.7031 3.7031-3.7031c1.0156 0 1.9375 0.39062 2.625 1.1094 0.60938 0.625 1.5938 0.64062 2.2188 0.046875 0.078125-0.078125 0.15625-0.15625 0.21875-0.25 0.17188-0.25 0.26562-0.5625 0.26562-0.875v-11.328h8.5469c-0.23438 0.70312-0.39062 1.4375-0.39062 2.2031 0 3.7656 3.0625 6.8281 6.8281 6.8281s6.8281-3.0625 6.8281-6.8281c0-0.76562-0.15625-1.5-0.39062-2.2031h7.0938c0.8125 0 1.4531 0.65625 1.4531 1.4531z" fill="#cbbfaf"></path>  <path d="m87.609 7.8125h-27.078c-2.5156 0-4.5781 2.0469-4.5781 4.5781v7.0625c-0.6875-0.23438-1.4219-0.35938-2.1875-0.35938-2.1094 0-4.0469 0.95312-5.3594 2.5938-1.3125 1.6562-1.7656 3.7969-1.2812 5.875 0.59375 2.5469 2.7344 4.5781 5.3125 5.0625 1.2031 0.23438 2.4062 0.14062 3.5156-0.23438v7.0781c0 2.5156 2.0625 4.5781 4.5781 4.5781h7.0781c-0.23438 0.6875-0.35938 1.4219-0.35938 2.1875 0 2.1094 0.9375 4.0625 2.5938 5.3594 1.2188 0.96875 2.7031 1.4688 4.2344 1.4688 0.54688 0 1.0938-0.0625 1.625-0.1875 2.5469-0.59375 4.5938-2.7344 5.0781-5.3125 0.21875-1.2031 0.14062-2.4219-0.23438-3.5156h10.078c0.85938 0 1.5625-0.70312 1.5625-1.5625v-30.094c0-2.5312-2.0469-4.5781-4.5781-4.5781z" opacity="0.7"  fill="#cbbfaf"></path> </svg>